<?xml version="1.0" encoding="utf-8"?>
<!-- Generator: Adobe Illustrator 25.3.1, SVG Export Plug-In . SVG Version: 6.00 Build 0)  -->
<svg version="1.1" id="Layer_1" xmlns="http://www.w3.org/2000/svg" xmlns:xlink="http://www.w3.org/1999/xlink" x="0px" y="0px"
	 viewBox="0 0 180 58" style="enable-background:new 0 0 180 58;" xml:space="preserve">
<style type="text/css">
	.st0{fill:#003060;}
</style>
<g id="Artwork_2_2_">
	<g>
		<g>
			<path class="st0" d="M44.2,26.2c0-1.6-1.6-3.3-4.7-3c-2.1,0.2-4.2,1.3-6.4,2.3l0.3-1.4l0.8-3.8c0.5-2.3,0.9-3.1,1.4-3.1
				c0.3,0,0.5,0.2,0.7,0.6c0.2,0.4,0.5,0.9,1.2,0.9s1.1-0.6,1.1-1.4c0-1-0.9-1.9-2-1.9c-2.6,0-4.6,2.9-5.8,8.5l-0.6,2.8
				c-0.9,0.5-1.6,0.7-2.4,0.7c-0.4,0-0.9-0.1-1.2-0.2c0-0.2,0.2-0.7,0.2-1.4c0-1.6-0.9-2-1.6-1.9c-0.8,0-1.9,0.4-1.9,2.2
				c0,0.9,0.6,1.7,1.6,2.2c-0.1,0.2-0.1,0.2-0.1,0.4c-0.8,2-4.5,9.2-5,8.4c-2.5-3.5,0.2-12.2,0.2-12.2c-0.3-0.1-2.4-1.2-4.7-1.2
				c-2.5,0-3.7,2.1-3.9,4c-0.1,1.2,0.3,1.9,1.1,2c0.7,0.1,1.3-0.5,1.4-1.4c0.1-0.7-0.3-1.1-0.6-1.3c-0.2-0.2-0.3-0.3-0.3-0.5
				c0-0.4,0.5-0.8,0.9-0.7c0.1,0,0.2,0.1,0.5,0.1c0.7,0.2,2.4,0.9,3,0.2c-2.3,4.8-1.6,13,2.3,12.6c2.3-0.3,4.6-5.6,6.7-10.2
				c0-0.1,0.7,0.4,3.3,0.2c0.1,0,0.1,0,0.2,0l-2,9.3c-0.4,1.7-0.9,3.8-1.8,3.8c-0.3,0-0.5-0.3-0.7-0.7c-0.2-0.4-0.6-1-1.3-1
				c-0.7,0-1.2,0.6-1.2,1.4c0,1.3,1.1,2,2.2,2c2.7,0,4.7-3,6-9.1l1.3-6.3c1.6-0.5,3-1.5,4.1-2.1c-0.2,0.5-0.3,1.3-0.3,1.8
				c0,1.6,0.9,2.9,1.8,4.4c0.7,1.2,1.4,2.3,1.4,3.1c0,0.8-0.8,1.5-1.6,1.5c-0.7,0-1-0.6-1.2-1.2c-0.3-0.6-0.6-1.3-1.4-1.3
				c-0.7,0-1.2,0.7-1.2,1.6c0,1.4,1.3,2.5,3,2.5c2.5,0,4.2-1.8,4.2-4.3c0-1.9-1.1-3.5-2.1-5c-0.7-1-1.2-1.9-1.3-2.6
				c0-1.3,1.9-2.2,2.9-2.2c0.4,0,0.8,0.1,1.1,0.2c-0.6,0.3-0.9,0.8-0.9,1.6c0,1,0.8,1.4,1.4,1.4C43.7,27.8,44.2,27,44.2,26.2"/>
			<path class="st0" d="M45.8,35.2c0-1-0.6-1.8-1.5-1.8c-0.8,0-1.5,0.7-1.5,1.8c0,1,0.7,1.6,1.5,1.6C45.3,36.9,45.8,36.2,45.8,35.2"
				/>
			<path class="st0" d="M29.7,1.7C14.6,1.7,2.3,13.9,2.3,29c0,15.1,12.3,27.3,27.3,27.3C44.7,56.3,56.9,44.1,56.9,29
				C56.9,13.9,44.7,1.7,29.7,1.7 M29.7,57.7C13.8,57.7,0.9,44.7,0.9,29S13.8,0.3,29.7,0.3c15.8,0,28.6,12.9,28.6,28.6
				S45.5,57.7,29.7,57.7"/>
			<path class="st0" d="M105.4,37.1c0.7,0,1.2-0.5,1.2-1.3c0-0.7-0.6-1.2-1.2-1.2c-0.7,0-1.3,0.5-1.3,1.2
				C104.1,36.5,104.7,37.1,105.4,37.1"/>
			<path class="st0" d="M75.3,36.9h0.3l5.5-13h-2l-2.8,7c-0.4,0.9-0.8,2.3-0.8,2.3s-0.4-1.5-0.8-2.3l-2.9-7h-2.2L75.3,36.9z"/>
			<polygon class="st0" points="83.6,36.7 85.6,36.7 85.6,32 91.1,32 91.1,30.1 85.6,30.1 85.6,25.6 91.7,25.6 91.7,23.9 83.6,23.9 
							"/>
			<path class="st0" d="M97.7,36.9c2.5,0,4.2-1.3,4.2-3.5c0-2.1-1.2-3.1-3.3-4L97.7,29c-1.3-0.6-1.9-1-1.9-2c0-0.9,0.7-1.5,1.7-1.5
				c1,0,1.6,0.4,2.1,1.3l1.6-1c-0.8-1.4-2-2.1-3.6-2.1c-2.2,0-3.6,1.4-3.6,3.2c0,2,1.2,2.9,3,3.8l0.9,0.4c1.4,0.6,2.2,1.1,2.2,2.3
				c0,1.1-1,1.8-2.3,1.8c-1.6,0-2.4-0.8-2.9-1.8L93,34.2C93.7,35.7,95.2,36.9,97.7,36.9"/>
			<path class="st0" d="M114.7,36.9c2.5,0,4.2-0.9,5-1.7v-5h-5.3V32h3.4v2.3c-0.7,0.5-1.9,0.9-3.2,0.9c-2.9,0-4.8-2.1-4.8-4.8
				s1.9-4.8,4.6-4.8c1.6,0,2.5,0.5,3.2,1.3l1.4-1.4c-1.1-1.2-2.6-1.8-4.6-1.8c-3.8,0-6.7,2.7-6.7,6.6
				C107.8,34.1,110.7,36.9,114.7,36.9"/>
			<polygon class="st0" points="122.4,36.7 130.4,36.7 130.4,34.9 124.4,34.9 124.4,23.9 122.4,23.9 			"/>
			<path class="st0" d="M144.1,30.2c0-3.8-2.9-6.7-6.7-6.7s-6.7,2.7-6.7,6.7c0,3.8,2.9,6.7,6.7,6.7S144.1,34.1,144.1,30.2
				 M142.1,30.2c0,2.7-1.9,4.8-4.6,4.8c-2.6,0-4.6-2.1-4.6-4.8c0-2.7,2-4.8,4.6-4.8C140.2,25.4,142.1,27.5,142.1,30.2"/>
			<path class="st0" d="M154.9,27.1c0-1.8-1.3-3.2-3.6-3.2h-4.7v12.9h5c2.7,0,4.2-1.7,4.2-3.9c0-1.7-0.9-2.8-2.6-3.2
				C154.3,29.1,154.9,28.3,154.9,27.1 M148.6,30.5h2.8c1.6,0,2.4,0.9,2.4,2.2c0,1.3-0.8,2.2-2.3,2.2h-2.9L148.6,30.5L148.6,30.5z
				 M153,27.2c0,1-0.6,1.7-1.8,1.7h-2.6v-3.2h2.6C152.4,25.6,153,26.2,153,27.2"/>
			<path class="st0" d="M168.9,36.7l-5.7-13H163l-5.5,13h2l1.2-2.9h5l1.2,2.9H168.9z M164.8,32h-3.5l1.2-2.8c0.3-0.8,0.6-2,0.6-2
				s0.3,1.2,0.7,2L164.8,32z"/>
			<polygon class="st0" points="171,36.7 179.1,36.7 179.1,34.9 173.1,34.9 173.1,23.9 171,23.9 			"/>
		</g>
	</g>
</g>
</svg>
